<?xml version="1.0" encoding="iso-8859-1"?>
<!-- Generator: Adobe Illustrator 19.0.0, SVG Export Plug-In . SVG Version: 6.00 Build 0)  -->
<svg version="1.1" id="Capa_1" xmlns="http://www.w3.org/2000/svg" xmlns:xlink="http://www.w3.org/1999/xlink" x="0px" y="0px"
	 viewBox="0 0 510.087 510.087" style="enable-background:new 0 0 510.087 510.087;" xml:space="preserve">
<g transform="matrix(1.25 0 0 -1.25 0 45)">
	<g>
		<g>
			<path style="fill:#C1694F;" d="M260.138-227.287c0,0,15.633-18.603,31.095-114.313c1.627-10.047,2.298-20.196,2.469-30.47H404.83
				V-47.2C354.915-7.696,286.501,0.45,203.693-27.209c0,0-61.531,34.133-69.939,42.553c-8.181,8.181-21.129,17.692-14.052-3.982
				c4.142-12.663,8.693-26.999,26.84-55.319c-39.094-23.165-51.348-53.248-97.371-151.802
				C14.026-271.035-3.872-295.474,5.879-324.237c12.857-37.968,60.484-63.659,100.625-34.372
				c21.834,15.929,25.554,44.521,70.827,70.804C218.905-287.077,260.138-269.567,260.138-227.287"/>
			<g>
				<path style="fill:#292F33;" d="M404.83-30.873c-94.834,64.978-246.283,51.644-228.591-2.025
					c109.238,21.185,180.463-17.533,228.591-81.556V-30.873z"/>
				<path style="fill:#292F33;" d="M218.951-28.005c-32.745-2.651-81.431-18.148-105.768-45.136c0,0-1.468,58.561,40.573,63.863
					c70.212,8.863,66.082-4.119,66.082-4.119L218.951-28.005z"/>
			</g>
			<path style="fill:#C1694F;" d="M181.336,25.516c6.349-13.141,45.579-20.366,57.526-68.597
				c11.958-48.242-35.658-33.564-49.562-9.728c-15.497,26.544-20.799,47.343-21.242,64.603
				C167.819,20.919,168.502,52.06,181.336,25.516"/>
			<path style="fill:#662113;" d="M184.055,5.218c12.55-11.014,27.853-28.126,30.151-44.999s-12.8-11.241-19.752,4.233
				c-6.963,15.462-8.567,31.619-12.902,36.784C177.228,6.401,184.055,5.218,184.055,5.218"/>
			<path style="fill:#292F33;" d="M187.969-139.109c0-7.817-6.337-14.154-14.165-14.154c-7.817,0-14.154,6.337-14.154,14.154
				c0,7.817,6.337,14.165,14.154,14.165C181.632-124.944,187.969-131.293,187.969-139.109"/>
			<path style="fill:#662113;" d="M43.266-302.858c0-10.024-6.053-18.136-13.505-18.136c-7.441,0-13.494,8.112-13.494,18.136
				c0,10.035,6.053,18.159,13.494,18.159C37.214-284.699,43.266-292.823,43.266-302.858"/>
			<path style="fill:#D99E82;" d="M113.035-75.337c-0.375,0.205-0.853,0.171-1.263,0.273c-17.556-23.12-33.234-58.049-62.464-120.65
				c-15.428-33.03-27.534-56.274-35.453-74.388c18.523-2.56,37.376,16.418,44.897,37.228c7.657,21.231,36.58,64.307,56.047,88.496
				C134.277-120.177,132.559-85.85,113.035-75.337"/>
		</g>
	</g>
</g>
<g>
</g>
<g>
</g>
<g>
</g>
<g>
</g>
<g>
</g>
<g>
</g>
<g>
</g>
<g>
</g>
<g>
</g>
<g>
</g>
<g>
</g>
<g>
</g>
<g>
</g>
<g>
</g>
<g>
</g>
</svg>
