<?xml version="1.0" encoding="iso-8859-1"?>
<!-- Generator: Adobe Illustrator 19.0.0, SVG Export Plug-In . SVG Version: 6.00 Build 0)  -->
<svg version="1.1" id="Capa_1" xmlns="http://www.w3.org/2000/svg" xmlns:xlink="http://www.w3.org/1999/xlink" x="0px" y="0px"
	 viewBox="0 0 511.996 511.996" style="enable-background:new 0 0 511.996 511.996;" xml:space="preserve">
<g transform="matrix(1.25 0 0 -1.25 0 45)">
	<g>
		<g>
			<g>
				<path style="fill:#FFAC33;" d="M285.827-340.57c-1.115,2.048-2.844,3.436-4.756,4.449c-18.17,19.41-5.257,42.177-5.257,42.177
					c0,6.281,11.378,22.756,0,22.756l-11.378-11.378c-11.378-11.378-11.378-45.511-11.378-45.511h-22.756
					c-6.292,0-11.378-5.097-11.378-11.378c0-6.292,5.086-11.378,11.378-11.378h12.607l-2.526-1.365
					c-5.53-2.992-7.589-9.899-4.597-15.428c2.981-5.53,9.887-7.589,15.417-4.597l30.026,16.236
					C286.76-353.006,288.819-346.1,285.827-340.57"/>
				<path style="fill:#FFAC33;" d="M206.182-340.57c-1.104,2.048-2.833,3.436-4.745,4.449c-18.17,19.41-5.268,42.177-5.268,42.177
					c0,6.281,11.378,22.756,0,22.756l-11.378-11.378c-11.378-11.378-11.378-45.511-11.378-45.511h-22.756
					c-6.292,0-11.378-5.097-11.378-11.378c0-6.292,5.086-11.378,11.378-11.378h12.607l-2.526-1.365
					c-5.53-2.992-7.589-9.899-4.597-15.428c2.981-5.53,9.887-7.589,15.417-4.597l30.026,16.236
					C207.115-353.006,209.175-346.1,206.182-340.57"/>
				<path style="fill:#FFAC33;" d="M88.263-77.778c0-12.561-12.732-22.756-28.444-22.756S19.996-89.156,19.996-77.778
					s24.11,22.756,39.822,22.756S88.263-65.205,88.263-77.778"/>
			</g>
			<path style="fill:#DD2E44;" d="M156.53,13.244c-22.756,11.378-34.133-11.378-34.133-11.378S122.396,36,88.263,36
				S54.13,1.867,54.13,1.867S19.996,12.539,19.996-20.889c0-16.862,12.527-27.432,28.262-27.159v-52.486
				c0-11.378,3.004-34.133-8.374-45.511s-28.274-45.511,5.86-45.511s34.133,45.511,34.133,79.644
				c11.378-11.378,45.511-11.378,45.511,45.511c0,9.865-2.423,17.203-6.258,22.756h14.643
				C179.285-43.644,179.285,1.867,156.53,13.244"/>
			<path style="fill:#E1E8ED;" d="M372.708-66.4c45.511-113.778,0-250.311-147.911-250.311
				c-87.973,0-147.911,68.267-159.289,125.156C52.116-124.62,54.13-100.533,54.13-55.022c0,31.152,24.098,54.886,56.889,45.511
				c79.644-22.756,56.889-113.778,136.533-113.778C361.33-123.289,341.191,12.368,372.708-66.4"/>
			<path style="fill:#292F33;" d="M99.641-55.022c0-6.281-5.086-11.378-11.378-11.378c-6.292,0-11.378,5.097-11.378,11.378
				s5.086,11.378,11.378,11.378C94.555-43.644,99.641-48.742,99.641-55.022"/>
		</g>
	</g>
</g>
<g>
</g>
<g>
</g>
<g>
</g>
<g>
</g>
<g>
</g>
<g>
</g>
<g>
</g>
<g>
</g>
<g>
</g>
<g>
</g>
<g>
</g>
<g>
</g>
<g>
</g>
<g>
</g>
<g>
</g>
</svg>
